<svg xmlns="http://www.w3.org/2000/svg" viewBox="0 0 1000 1000">
  <title>Net&amp;Sec Suministros</title>
  <defs>
    <linearGradient id="p-base" x1="0.15" y1="0.1" x2="0.85" y2="0.9">
      <stop offset="0" stop-color="#1ec0f5"/>
      <stop offset="1" stop-color="#0a4fa8"/>
    </linearGradient>
  </defs>
  <circle cx="500" cy="500" r="500" fill="url(#p-base)"/>
  <path d="M205 322C158 372 130 560 178 652C188 620 191 582 201 566C211 552 223 544 236 540C305 610 405 722 492 726C520 727 540 708 535 683C531 662 520 650 505 636C420 556 280 400 205 322ZM585 128C470 128 392 182 392 262C392 322 420 362 455 396C540 476 640 556 690 610C713 640 719 690 706 740C690 792 620 852 520 853C440 854 360 830 298 803C330 832 420 890 512 898C630 895 745 836 805 766C848 706 846 610 790 528C702 446 592 350 538 298C515 272 515 226 548 205C572 190 600 186 630 188C722 196 822 262 880 330C936 396 972 452 982 515C983 442 932 338 842 256C772 186 680 128 585 128Z" fill="#ffffff"/>
</svg>
